<?xml version="1.0" encoding="UTF-8"?>
<!DOCTYPE svg PUBLIC "-//W3C//DTD SVG 1.1//EN" "http://www.w3.org/Graphics/SVG/1.1/DTD/svg11.dtd">
<svg xmlns="http://www.w3.org/2000/svg" version="1.1" width="500px" height="500px" style="shape-rendering:geometricPrecision; text-rendering:geometricPrecision; image-rendering:optimizeQuality; fill-rule:evenodd; clip-rule:evenodd" xmlns:xlink="http://www.w3.org/1999/xlink">
<g><path style="opacity:0.786" fill="#589dbd" d="M 377.5,78.5 C 377.5,78.8333 377.5,79.1667 377.5,79.5C 291.167,79.5 204.833,79.5 118.5,79.5C 119.609,78.71 120.942,78.21 122.5,78C 207.57,77.1697 292.57,77.3364 377.5,78.5 Z"/></g>
<g><path style="opacity:1" fill="#107eb0" d="M 118.5,79.5 C 204.833,79.5 291.167,79.5 377.5,79.5C 378.167,79.5 378.5,79.8333 378.5,80.5C 291.833,80.3333 205.166,80.5 118.5,81C 121.051,83.4461 123.551,83.6128 126,81.5C 127.23,82.2752 127.563,83.2752 127,84.5C 125.667,85.1667 124.333,85.8333 123,86.5C 120.478,85.3694 117.811,84.7027 115,84.5C 111.272,85.7058 107.439,86.5392 103.5,87C 104.815,88.3946 104.481,89.3946 102.5,90C 100.455,90.4901 98.4546,90.3235 96.5,89.5C 99.7876,86.5167 103.454,84.0167 107.5,82C 111.041,80.5597 114.708,79.7264 118.5,79.5 Z"/></g>
<g><path style="opacity:1" fill="#0180ba" d="M 378.5,80.5 C 384.225,80.9578 389.225,82.9578 393.5,86.5C 392.5,87.1667 391.5,87.8333 390.5,88.5C 392.635,89.6454 394.801,89.6454 397,88.5C 397.5,88.6667 398,88.8333 398.5,89C 397.289,89.8928 397.289,90.7261 398.5,91.5C 399.086,91.2907 399.586,90.9574 400,90.5C 402.235,92.2024 404.735,93.2024 407.5,93.5C 407.197,96.5876 408.53,98.2542 411.5,98.5C 413.394,101.961 415.06,105.628 416.5,109.5C 417.5,109.5 418.5,109.5 419.5,109.5C 419.833,109.5 420.167,109.5 420.5,109.5C 420.275,114.048 420.941,118.382 422.5,122.5C 422.449,124.1 422.116,125.6 421.5,127C 422.449,127.617 423.282,127.451 424,126.5C 424.833,206.835 424.667,287.169 423.5,367.5C 422.692,367.808 422.025,368.308 421.5,369C 422.622,372.409 422.789,375.909 422,379.5C 419.961,380.978 419.128,382.978 419.5,385.5C 418.596,386.209 418.263,387.209 418.5,388.5C 417.5,388.5 416.5,388.5 415.5,388.5C 415.5,390.5 415.5,392.5 415.5,394.5C 412.075,394.367 411.742,395.033 414.5,396.5C 411.05,395.756 409.384,397.09 409.5,400.5C 408.167,400.5 406.833,400.5 405.5,400.5C 405.5,402.167 405.5,403.833 405.5,405.5C 404.421,407.543 402.754,408.876 400.5,409.5C 397.715,408.916 396.048,409.916 395.5,412.5C 395.158,413.338 394.492,413.672 393.5,413.5C 387.815,413.64 382.482,414.974 377.5,417.5C 292.166,417.667 206.833,417.5 121.5,417C 118.182,416.121 114.848,415.287 111.5,414.5C 109.268,412.355 106.601,410.855 103.5,410C 101.866,409.506 100.199,409.34 98.5,409.5C 97.5721,407.401 96.0721,405.734 94,404.5C 93.5172,403.552 93.3505,402.552 93.5,401.5C 90.6461,400.974 87.9794,399.974 85.5,398.5C 84.4489,397.778 83.7822,396.778 83.5,395.5C 83.0924,392.802 81.9257,390.469 80,388.5C 79.8184,385.774 79.3184,383.107 78.5,380.5C 76.9954,383.131 76.3287,382.797 76.5,379.5C 76.3107,375.36 75.6441,371.36 74.5,367.5C 74.1667,287.831 74.5,208.164 75.5,128.5C 76.2508,129.376 76.7508,130.376 77,131.5C 75.252,121.416 77.5854,112.416 84,104.5C 86.7515,105.858 87.2515,105.191 85.5,102.5C 85.5565,101.263 86.0565,100.263 87,99.5C 88.5553,101.515 90.3886,101.848 92.5,100.5C 92.7552,98.6565 92.9219,96.6565 93,94.5C 93.9973,92.6769 95.1639,91.0103 96.5,89.5C 98.4546,90.3235 100.455,90.4901 102.5,90C 104.481,89.3946 104.815,88.3946 103.5,87C 107.439,86.5392 111.272,85.7058 115,84.5C 117.811,84.7027 120.478,85.3694 123,86.5C 124.333,85.8333 125.667,85.1667 127,84.5C 127.563,83.2752 127.23,82.2752 126,81.5C 123.551,83.6128 121.051,83.4461 118.5,81C 205.166,80.5 291.833,80.3333 378.5,80.5 Z M 158.5,137.5 C 162.519,137.646 166.519,137.979 170.5,138.5C 176.892,141.201 181.892,145.534 185.5,151.5C 185.229,153.38 185.896,154.713 187.5,155.5C 189.599,169.227 184.932,179.893 173.5,187.5C 157.766,192.536 145.932,187.869 138,173.5C 136.661,168.264 136.161,162.93 136.5,157.5C 137.909,153.684 139.576,150.017 141.5,146.5C 143.54,144.823 145.54,143.156 147.5,141.5C 151.082,139.752 154.749,138.419 158.5,137.5 Z M 318.5,210.5 C 322.223,211.297 325.89,212.297 329.5,213.5C 331.456,214.492 333.456,215.492 335.5,216.5C 338.833,218.833 342.167,221.167 345.5,223.5C 352.207,232.114 356.707,241.781 359,252.5C 359.5,288.165 359.667,323.832 359.5,359.5C 345.833,359.5 332.167,359.5 318.5,359.5C 317.833,329.167 317.167,298.833 316.5,268.5C 315.775,260.607 312.108,254.607 305.5,250.5C 294.245,243.805 282.912,243.971 271.5,251C 269.627,252.704 267.96,254.537 266.5,256.5C 262.562,261.051 260.228,266.385 259.5,272.5C 258.681,275.305 258.181,278.305 258,281.5C 257.5,307.498 257.333,333.498 257.5,359.5C 243.5,359.5 229.5,359.5 215.5,359.5C 215.168,310.664 215.501,261.997 216.5,213.5C 227.5,213.5 238.5,213.5 249.5,213.5C 251.5,213.5 253.5,213.5 255.5,213.5C 255.175,221.019 255.508,228.352 256.5,235.5C 256.842,236.338 257.508,236.672 258.5,236.5C 261.085,231.7 264.418,227.367 268.5,223.5C 270.909,222.299 272.909,220.633 274.5,218.5C 277.5,217.167 280.5,215.833 283.5,214.5C 286.993,213.027 290.66,211.86 294.5,211C 302.493,210.5 310.493,210.334 318.5,210.5 Z M 181.5,213.5 C 181.5,262.167 181.5,310.833 181.5,359.5C 167.5,359.5 153.5,359.5 139.5,359.5C 139.5,310.833 139.5,262.167 139.5,213.5C 153.5,213.5 167.5,213.5 181.5,213.5 Z"/></g>
<g><path style="opacity:1" fill="#4192bb" d="M 377.5,79.5 C 377.5,79.1667 377.5,78.8333 377.5,78.5C 389.329,80.0937 399.329,85.0937 407.5,93.5C 404.735,93.2024 402.235,92.2024 400,90.5C 399.586,90.9574 399.086,91.2907 398.5,91.5C 397.289,90.7261 397.289,89.8928 398.5,89C 398,88.8333 397.5,88.6667 397,88.5C 394.801,89.6454 392.635,89.6454 390.5,88.5C 391.5,87.8333 392.5,87.1667 393.5,86.5C 389.225,82.9578 384.225,80.9578 378.5,80.5C 378.5,79.8333 378.167,79.5 377.5,79.5 Z"/></g>
<g><path style="opacity:1" fill="#3a8fb7" d="M 407.5,93.5 C 413.456,97.4445 417.456,102.778 419.5,109.5C 418.5,109.5 417.5,109.5 416.5,109.5C 415.06,105.628 413.394,101.961 411.5,98.5C 408.53,98.2542 407.197,96.5876 407.5,93.5 Z"/></g>
<g><path style="opacity:0.075" fill="#9edae4" d="M 79.5,108.5 C 79.573,110.027 78.9063,111.027 77.5,111.5C 77.427,109.973 78.0937,108.973 79.5,108.5 Z"/></g>
<g><path style="opacity:0.275" fill="#88c0d8" d="M 74.5,119.5 C 74.5987,122.237 74.2653,124.904 73.5,127.5C 73.1667,127.5 72.8333,127.5 72.5,127.5C 72.8023,124.627 73.469,121.961 74.5,119.5 Z"/></g>
<g><path style="opacity:0.969" fill="#6aa5cc" d="M 158.5,137.5 C 154.749,138.419 151.082,139.752 147.5,141.5C 147.5,140.5 147.5,139.5 147.5,138.5C 151.154,138.058 154.821,137.724 158.5,137.5 Z"/></g>
<g><path style="opacity:0.996" fill="#3e92b7" d="M 170.5,138.5 C 173.187,138.336 175.854,138.503 178.5,139C 181.945,142.595 184.279,146.762 185.5,151.5C 181.892,145.534 176.892,141.201 170.5,138.5 Z"/></g>
<g><path style="opacity:0.675" fill="#5fa4c0" d="M 147.5,141.5 C 145.54,143.156 143.54,144.823 141.5,146.5C 141.808,142.991 143.808,141.324 147.5,141.5 Z"/></g>
<g><path style="opacity:1" fill="#4c98be" d="M 136.5,157.5 C 136.161,162.93 136.661,168.264 138,173.5C 145.932,187.869 157.766,192.536 173.5,187.5C 173.082,188.222 172.416,188.722 171.5,189C 171.833,189.333 172.167,189.667 172.5,190C 164.853,191.684 157.186,191.851 149.5,190.5C 149.5,189.5 149.5,188.5 149.5,187.5C 144.688,186.685 140.855,184.352 138,180.5C 135.52,172.81 135.02,165.143 136.5,157.5 Z"/></g>
<g><path style="opacity:1" fill="#4597bf" d="M 187.5,155.5 C 192.466,163.745 191.466,171.245 184.5,178C 185.641,178.741 185.641,179.575 184.5,180.5C 185.5,181.333 186.5,182.167 187.5,183C 185.667,184.167 184.167,185.667 183,187.5C 182.213,186.289 181.546,185.289 181,184.5C 178.998,186.751 176.498,187.751 173.5,187.5C 184.932,179.893 189.599,169.227 187.5,155.5 Z"/></g>
<g><path style="opacity:0.775" fill="#68a2bd" d="M 72.5,127.5 C 72.8333,127.5 73.1667,127.5 73.5,127.5C 73.1674,207.668 73.5007,287.668 74.5,367.5C 75.6441,371.36 76.3107,375.36 76.5,379.5C 75.8333,378.833 75.1667,378.167 74.5,377.5C 73.3681,374.372 72.5348,371.038 72,367.5C 71.1699,287.43 71.3366,207.43 72.5,127.5 Z"/></g>
<g><path style="opacity:0.485" fill="#62a5c8" d="M 318.5,210.5 C 310.493,210.334 302.493,210.5 294.5,211C 290.66,211.86 286.993,213.027 283.5,214.5C 283.539,213.417 283.873,212.417 284.5,211.5C 295.024,208.868 305.691,208.034 316.5,209C 317.416,209.278 318.082,209.778 318.5,210.5 Z"/></g>
<g><path style="opacity:0.031" fill="#80c6e7" d="M 249.5,213.5 C 251.607,212.532 253.941,212.198 256.5,212.5C 256.5,220.167 256.5,227.833 256.5,235.5C 255.508,228.352 255.175,221.019 255.5,213.5C 253.5,213.5 251.5,213.5 249.5,213.5 Z"/></g>
<g><path style="opacity:0.894" fill="#83bbd5" d="M 329.5,213.5 C 332.32,213.087 334.32,214.087 335.5,216.5C 333.456,215.492 331.456,214.492 329.5,213.5 Z"/></g>
<g><path style="opacity:0.984" fill="#5ea2c0" d="M 274.5,218.5 C 272.909,220.633 270.909,222.299 268.5,223.5C 268.062,219.092 270.062,217.425 274.5,218.5 Z"/></g>
<g><path style="opacity:0.973" fill="#4296c1" d="M 183.5,359.5 C 183.667,311.499 183.5,263.499 183,215.5C 182.722,214.584 182.222,213.918 181.5,213.5C 167.5,213.5 153.5,213.5 139.5,213.5C 139.5,262.167 139.5,310.833 139.5,359.5C 138.665,311.904 138.165,263.571 138,214.5C 137.667,260.833 137.333,307.167 137,353.5C 136.667,308.5 136.333,263.5 136,218.5C 135.5,217.5 135,216.5 134.5,215.5C 135.981,214.52 137.315,213.353 138.5,212C 151.496,211.5 164.496,211.333 177.5,211.5C 177.222,209.654 177.889,208.32 179.5,207.5C 181.531,210.54 183.864,213.374 186.5,216C 184.327,217.865 183.993,220.031 185.5,222.5C 184.838,268.294 184.172,313.961 183.5,359.5 Z M 181.5,213.5 C 181.5,262.167 181.5,310.833 181.5,359.5C 167.5,359.5 153.5,359.5 139.5,359.5C 139.5,310.833 139.5,262.167 139.5,213.5C 153.5,213.5 167.5,213.5 181.5,213.5 Z"/></g>
<g><path style="opacity:0.925" fill="#6aa7c7" d="M 268.5,223.5 C 264.418,227.367 261.085,231.7 258.5,236.5C 258.919,232.911 260.086,229.577 262,226.5C 264.034,225.138 266.201,224.138 268.5,223.5 Z"/></g>
<g><path style="opacity:1" fill="#127eb1" d="M 96.5,89.5 C 95.1639,91.0103 93.9973,92.6769 93,94.5C 92.9219,96.6565 92.7552,98.6565 92.5,100.5C 90.3886,101.848 88.5553,101.515 87,99.5C 86.0565,100.263 85.5565,101.263 85.5,102.5C 87.2515,105.191 86.7515,105.858 84,104.5C 77.5854,112.416 75.252,121.416 77,131.5C 76.7508,130.376 76.2508,129.376 75.5,128.5C 74.5,208.164 74.1667,287.831 74.5,367.5C 73.5007,287.668 73.1674,207.668 73.5,127.5C 74.2653,124.904 74.5987,122.237 74.5,119.5C 74.8975,116.554 75.8975,113.887 77.5,111.5C 78.9063,111.027 79.573,110.027 79.5,108.5C 83.4112,100.589 89.0779,94.2558 96.5,89.5 Z"/></g>
<g><path style="opacity:1" fill="#177fb1" d="M 305.5,250.5 C 312.108,254.607 315.775,260.607 316.5,268.5C 316.5,298.5 316.5,328.5 316.5,358.5C 315.683,356.031 315.183,353.365 315,350.5C 314.667,323.833 314.333,297.167 314,270.5C 313.801,268.598 312.967,267.098 311.5,266C 312.975,262.563 312.475,259.396 310,256.5C 309.586,256.957 309.086,257.291 308.5,257.5C 306.991,255.344 305.991,253.01 305.5,250.5 Z"/></g>
<g><path style="opacity:0.799" fill="#4996b9" d="M 345.5,223.5 C 346.833,223.5 348.167,223.5 349.5,223.5C 350.565,226.608 352.398,229.274 355,231.5C 355.287,233.891 355.787,236.224 356.5,238.5C 357.689,239.429 359.022,239.762 360.5,239.5C 361.063,261.826 361.396,284.492 361.5,307.5C 361.5,325.18 360.833,342.513 359.5,359.5C 359.667,323.832 359.5,288.165 359,252.5C 356.707,241.781 352.207,232.114 345.5,223.5 Z"/></g>
<g><path style="opacity:0.039" fill="#7fbdde" d="M 259.5,272.5 C 258.919,301.66 258.253,330.66 257.5,359.5C 257.333,333.498 257.5,307.498 258,281.5C 258.181,278.305 258.681,275.305 259.5,272.5 Z"/></g>
<g><path style="opacity:0.713" fill="#64a1b9" d="M 426.5,129.5 C 427.666,208.666 427.832,287.999 427,367.5C 426.802,369.382 426.302,371.048 425.5,372.5C 425.167,291.332 425.501,210.332 426.5,129.5 Z"/></g>
<g><path style="opacity:0.698" fill="#2d88b1" d="M 266.5,256.5 C 264.854,261.557 263.02,266.557 261,271.5C 259.802,301.15 259.135,330.817 259,360.5C 247.379,360.638 235.713,361.305 224,362.5C 220.981,360.943 217.814,359.943 214.5,359.5C 214.833,359.5 215.167,359.5 215.5,359.5C 229.5,359.5 243.5,359.5 257.5,359.5C 258.253,330.66 258.919,301.66 259.5,272.5C 260.228,266.385 262.562,261.051 266.5,256.5 Z"/></g>
<g><path style="opacity:0.419" fill="#55a4c5" d="M 316.5,268.5 C 317.167,298.833 317.833,329.167 318.5,359.5C 317.377,360.757 316.711,360.424 316.5,358.5C 316.5,328.5 316.5,298.5 316.5,268.5 Z"/></g>
<g><path style="opacity:0.459" fill="#81acc4" d="M 181.5,213.5 C 182.222,213.918 182.722,214.584 183,215.5C 183.5,263.499 183.667,311.499 183.5,359.5C 182.833,359.5 182.167,359.5 181.5,359.5C 181.5,310.833 181.5,262.167 181.5,213.5 Z"/></g>
<g><path style="opacity:0.035" fill="#87c3e3" d="M 216.5,213.5 C 215.501,261.997 215.168,310.664 215.5,359.5C 215.167,359.5 214.833,359.5 214.5,359.5C 214.167,310.495 214.5,261.495 215.5,212.5C 216.107,212.624 216.44,212.957 216.5,213.5 Z"/></g>
<g><path style="opacity:1" fill="#187fad" d="M 420.5,109.5 C 424.182,115.565 426.182,122.232 426.5,129.5C 425.501,210.332 425.167,291.332 425.5,372.5C 425.717,375.421 425.051,378.087 423.5,380.5C 421.866,381.955 420.532,383.622 419.5,385.5C 419.128,382.978 419.961,380.978 422,379.5C 422.789,375.909 422.622,372.409 421.5,369C 422.025,368.308 422.692,367.808 423.5,367.5C 424.667,287.169 424.833,206.835 424,126.5C 423.282,127.451 422.449,127.617 421.5,127C 422.116,125.6 422.449,124.1 422.5,122.5C 420.941,118.382 420.275,114.048 420.5,109.5 Z"/></g>
<g><path style="opacity:1" fill="#58a0c5" d="M 74.5,377.5 C 75.1667,378.167 75.8333,378.833 76.5,379.5C 76.3287,382.797 76.9954,383.131 78.5,380.5C 79.3184,383.107 79.8184,385.774 80,388.5C 81.9257,390.469 83.0924,392.802 83.5,395.5C 78.9372,390.374 75.9372,384.374 74.5,377.5 Z"/></g>
<g><path style="opacity:1" fill="#5496be" d="M 423.5,380.5 C 421.623,386.464 418.623,391.797 414.5,396.5C 411.742,395.033 412.075,394.367 415.5,394.5C 415.5,392.5 415.5,390.5 415.5,388.5C 416.5,388.5 417.5,388.5 418.5,388.5C 418.263,387.209 418.596,386.209 419.5,385.5C 420.532,383.622 421.866,381.955 423.5,380.5 Z"/></g>
<g><path style="opacity:1" fill="#4e96bf" d="M 414.5,396.5 C 412.5,400.5 409.5,403.5 405.5,405.5C 405.5,403.833 405.5,402.167 405.5,400.5C 406.833,400.5 408.167,400.5 409.5,400.5C 409.384,397.09 411.05,395.756 414.5,396.5 Z"/></g>
<g><path style="opacity:0.965" fill="#4a98bc" d="M 85.5,398.5 C 87.9794,399.974 90.6461,400.974 93.5,401.5C 93.3505,402.552 93.5172,403.552 94,404.5C 96.0721,405.734 97.5721,407.401 98.5,409.5C 93.5699,406.535 89.2366,402.869 85.5,398.5 Z"/></g>
<g><path style="opacity:0.796" fill="#81b7cd" d="M 400.5,409.5 C 399.341,411.25 397.674,412.25 395.5,412.5C 396.048,409.916 397.715,408.916 400.5,409.5 Z"/></g>
<g><path style="opacity:0.988" fill="#5ea5c8" d="M 98.5,409.5 C 100.199,409.34 101.866,409.506 103.5,410C 106.601,410.855 109.268,412.355 111.5,414.5C 114.848,415.287 118.182,416.121 121.5,417C 206.833,417.5 292.166,417.667 377.5,417.5C 377.5,417.833 377.5,418.167 377.5,418.5C 292.334,419.666 207.001,419.832 121.5,419C 112.969,417.664 105.302,414.497 98.5,409.5 Z"/></g>
<g><path style="opacity:1" fill="#549abf" d="M 393.5,413.5 C 388.634,416.342 383.301,418.009 377.5,418.5C 377.5,418.167 377.5,417.833 377.5,417.5C 382.482,414.974 387.815,413.64 393.5,413.5 Z"/></g>
</svg>
