<?xml version="1.0" encoding="UTF-8"?>
<!DOCTYPE svg PUBLIC "-//W3C//DTD SVG 1.1//EN" "http://www.w3.org/Graphics/SVG/1.1/DTD/svg11.dtd">
<svg xmlns="http://www.w3.org/2000/svg" version="1.1" width="612px" height="408px" style="shape-rendering:geometricPrecision; text-rendering:geometricPrecision; image-rendering:optimizeQuality; fill-rule:evenodd; clip-rule:evenodd" xmlns:xlink="http://www.w3.org/1999/xlink">
<g><path style="opacity:1" fill="#0d61af" d="M 214.5,148.5 C 215.772,178.657 215.772,208.657 214.5,238.5C 214.667,212.498 214.5,186.498 214,160.5C 212.989,159.663 211.822,159.33 210.5,159.5C 209.833,155.5 209.167,155.5 208.5,159.5C 207.833,158.833 207.167,158.167 206.5,157.5C 204.833,156.5 203.5,155.167 202.5,153.5C 203.602,151.908 202.935,151.075 200.5,151C 160.5,150.333 120.5,150.333 80.5,151C 78.3136,152.309 76.1469,152.476 74,151.5C 72.513,152.253 72.3463,153.086 73.5,154C 70.9861,154.881 68.9861,156.381 67.5,158.5C 66.7784,158.918 66.2784,159.584 66,160.5C 65.8261,165.684 65.3261,170.684 64.5,175.5C 64.3338,169.158 64.5005,162.825 65,156.5C 65.6979,155.309 66.5313,154.309 67.5,153.5C 70.2067,151.628 72.54,149.295 74.5,146.5C 75.3059,149.362 76.6393,149.862 78.5,148C 115.82,146.688 153.154,145.854 190.5,145.5C 190.272,147.355 190.939,148.188 192.5,148C 192.676,146.308 193.176,144.808 194,143.5C 196.309,144.975 198.476,146.642 200.5,148.5C 201.452,146.955 201.785,145.288 201.5,143.5C 205.324,143.735 207.324,145.735 207.5,149.5C 204.203,149.329 203.869,149.995 206.5,151.5C 208.588,149.135 211.254,148.135 214.5,148.5 Z"/></g>
<g><path style="opacity:1" fill="#3a71b6" d="M 214.5,148.5 C 211.254,148.135 208.588,149.135 206.5,151.5C 203.869,149.995 204.203,149.329 207.5,149.5C 207.324,145.735 205.324,143.735 201.5,143.5C 201.785,145.288 201.452,146.955 200.5,148.5C 198.476,146.642 196.309,144.975 194,143.5C 193.176,144.808 192.676,146.308 192.5,148C 190.939,148.188 190.272,147.355 190.5,145.5C 153.154,145.854 115.82,146.688 78.5,148C 76.6393,149.862 75.3059,149.362 74.5,146.5C 72.54,149.295 70.2067,151.628 67.5,153.5C 68.5361,151.609 68.5361,149.776 67.5,148C 69.0931,147.051 70.4264,145.885 71.5,144.5C 73.9955,142.286 76.9955,141.119 80.5,141C 121.5,140.333 162.5,140.333 203.5,141C 208.194,142.012 211.861,144.512 214.5,148.5 Z"/></g>
<g><path style="opacity:1" fill="#0c61b0" d="M 214.5,238.5 C 213.791,239.404 212.791,239.737 211.5,239.5C 211.201,241.604 211.534,243.604 212.5,245.5C 213.845,246.347 214.845,247.513 215.5,249C 214.427,252.12 213.427,255.287 212.5,258.5C 211.224,259.645 209.891,259.645 208.5,258.5C 207.646,257.052 206.646,255.719 205.5,254.5C 206.689,253.571 208.022,253.238 209.5,253.5C 209.715,222.128 209.382,190.795 208.5,159.5C 209.167,155.5 209.833,155.5 210.5,159.5C 211.822,159.33 212.989,159.663 214,160.5C 214.5,186.498 214.667,212.498 214.5,238.5 Z"/></g>
<g><path style="opacity:1" fill="#296ca9" d="M 202.5,153.5 C 160.872,152.809 119.206,152.975 77.5,154C 76.6667,154.833 75.8333,155.667 75,156.5C 74.3333,183.167 74.3333,209.833 75,236.5C 76.0391,235.29 77.2058,234.29 78.5,233.5C 77.6267,235.886 76.1267,237.886 74,239.5C 72.8436,235.582 72.3436,231.582 72.5,227.5C 71.5524,204.522 71.2191,181.522 71.5,158.5C 70.1667,158.5 68.8333,158.5 67.5,158.5C 68.9861,156.381 70.9861,154.881 73.5,154C 72.3463,153.086 72.513,152.253 74,151.5C 76.1469,152.476 78.3136,152.309 80.5,151C 120.5,150.333 160.5,150.333 200.5,151C 202.935,151.075 203.602,151.908 202.5,153.5 Z"/></g>
<g><path style="opacity:1" fill="#0b61ae" d="M 67.5,158.5 C 68.8333,158.5 70.1667,158.5 71.5,158.5C 71.2191,181.522 71.5524,204.522 72.5,227.5C 70.3977,227.57 68.3977,228.07 66.5,229C 67.5842,231.825 68.7508,231.992 70,229.5C 71.0961,231.889 71.9294,234.389 72.5,237C 66.2654,238.396 66.5987,239.896 73.5,241.5C 75.2387,240.6 77.072,239.933 79,239.5C 79.8333,239.833 80.6667,240.167 81.5,240.5C 77.3517,241.655 73.685,243.655 70.5,246.5C 68.9547,247.452 67.288,247.785 65.5,247.5C 65.281,246.325 65.6143,245.325 66.5,244.5C 71.6046,241.905 70.9379,240.905 64.5,241.5C 64.5,219.5 64.5,197.5 64.5,175.5C 65.3261,170.684 65.8261,165.684 66,160.5C 66.2784,159.584 66.7784,158.918 67.5,158.5 Z"/></g>
<g><path style="opacity:1" fill="#286aae" d="M 170.5,169.5 C 184.279,169.406 189.779,176.072 187,189.5C 182.532,196.085 176.365,198.252 168.5,196C 160.772,191.373 158.605,184.873 162,176.5C 163.857,172.853 166.69,170.52 170.5,169.5 Z"/></g>
<g><path style="opacity:0.997" fill="#1e2125" d="M 240.5,175.5 C 245.844,175.334 251.177,175.501 256.5,176C 254.464,178.299 254.131,180.799 255.5,183.5C 253.138,184.271 250.804,185.105 248.5,186C 249.167,186.333 249.833,186.667 250.5,187C 249.422,187.674 248.755,188.674 248.5,190C 248.796,191.888 249.296,193.722 250,195.5C 250.671,194.748 251.504,194.414 252.5,194.5C 252.365,196.554 253.032,198.221 254.5,199.5C 253.711,199.783 253.044,200.283 252.5,201C 255.687,201.001 258.52,201.834 261,203.5C 261.333,203.167 261.667,202.833 262,202.5C 263.119,203.552 263.619,204.719 263.5,206C 261.671,206.273 260.171,207.107 259,208.5C 258.333,207.167 257.667,207.167 257,208.5C 256.252,206.668 255.252,205.001 254,203.5C 253.804,205.286 252.971,206.619 251.5,207.5C 250.742,206.189 249.742,205.689 248.5,206C 249.167,207.333 250.167,208.333 251.5,209C 251.425,215.623 251.425,222.456 251.5,229.5C 247.833,229.5 244.167,229.5 240.5,229.5C 240.5,211.5 240.5,193.5 240.5,175.5 Z"/></g>
<g><path style="opacity:1" fill="#25282a" d="M 240.5,175.5 C 250.377,174.125 260.377,174.292 270.5,176C 277.312,179.789 280.312,185.623 279.5,193.5C 279.195,202.307 274.862,208.141 266.5,211C 261.845,211.499 257.179,211.666 252.5,211.5C 252.823,217.69 252.49,223.69 251.5,229.5C 251.425,222.456 251.425,215.623 251.5,209C 250.167,208.333 249.167,207.333 248.5,206C 249.742,205.689 250.742,206.189 251.5,207.5C 252.971,206.619 253.804,205.286 254,203.5C 255.252,205.001 256.252,206.668 257,208.5C 257.667,207.167 258.333,207.167 259,208.5C 260.171,207.107 261.671,206.273 263.5,206C 263.619,204.719 263.119,203.552 262,202.5C 261.667,202.833 261.333,203.167 261,203.5C 258.52,201.834 255.687,201.001 252.5,201C 253.044,200.283 253.711,199.783 254.5,199.5C 261.039,201.817 265.372,199.651 267.5,193C 265.059,186.282 260.393,184.115 253.5,186.5C 252.607,189.084 252.274,191.751 252.5,194.5C 251.504,194.414 250.671,194.748 250,195.5C 249.296,193.722 248.796,191.888 248.5,190C 248.755,188.674 249.422,187.674 250.5,187C 249.833,186.667 249.167,186.333 248.5,186C 250.804,185.105 253.138,184.271 255.5,183.5C 254.131,180.799 254.464,178.299 256.5,176C 251.177,175.501 245.844,175.334 240.5,175.5 Z"/></g>
<g><path style="opacity:0.993" fill="#232427" d="M 283.5,175.5 C 287.167,175.5 290.833,175.5 294.5,175.5C 294.173,180.544 294.506,185.544 295.5,190.5C 304.82,185.437 312.32,187.437 318,196.5C 319.431,207.422 319.931,218.422 319.5,229.5C 315.5,229.5 311.5,229.5 307.5,229.5C 307.666,221.16 307.5,212.827 307,204.5C 305.69,199.34 302.524,197.673 297.5,199.5C 296.416,200.665 295.583,201.998 295,203.5C 294.5,212.16 294.334,220.827 294.5,229.5C 290.833,229.5 287.167,229.5 283.5,229.5C 283.5,211.5 283.5,193.5 283.5,175.5 Z"/></g>
<g><path style="opacity:0.169" fill="#afafb1" d="M 522.5,189.5 C 523.964,188.84 525.631,188.507 527.5,188.5C 529.64,188.556 531.306,189.223 532.5,190.5C 529.272,189.586 525.939,189.253 522.5,189.5 Z"/></g>
<g><path style="opacity:0.981" fill="#202325" d="M 337.5,187.5 C 350.142,186.722 357.975,192.388 361,204.5C 363.588,219.896 357.255,228.896 342,231.5C 330.259,229.391 323.426,222.391 321.5,210.5C 321.71,199.028 327.043,191.361 337.5,187.5 Z M 338.5,198.5 C 343.534,198.093 347.034,200.093 349,204.5C 349.667,207.833 349.667,211.167 349,214.5C 347.104,220.53 343.271,222.03 337.5,219C 331.912,211.819 332.245,204.986 338.5,198.5 Z"/></g>
<g><path style="opacity:0.216" fill="#aaabac" d="M 378.5,178.5 C 379.479,181.625 379.813,184.958 379.5,188.5C 381.833,188.5 384.167,188.5 386.5,188.5C 386.5,191.833 386.5,195.167 386.5,198.5C 384.167,198.5 381.833,198.5 379.5,198.5C 379.5,205.5 379.5,212.5 379.5,219.5C 378.508,212.352 378.175,205.019 378.5,197.5C 380.833,197.5 383.167,197.5 385.5,197.5C 385.5,194.833 385.5,192.167 385.5,189.5C 383.167,189.5 380.833,189.5 378.5,189.5C 378.5,185.833 378.5,182.167 378.5,178.5 Z"/></g>
<g><path style="opacity:0.975" fill="#202326" d="M 462.5,217.5 C 460.709,219.184 459.209,221.184 458,223.5C 456.873,220.093 455.54,220.426 454,224.5C 453.667,224.167 453.333,223.833 453,223.5C 450.565,225.437 450.398,227.27 452.5,229C 451.584,229.278 450.918,229.778 450.5,230.5C 441.103,228.939 434.937,223.606 432,214.5C 429.379,203.811 430.379,193.477 435,183.5C 446.999,170.074 459.999,169.074 474,180.5C 476.482,184.451 477.649,188.785 477.5,193.5C 473.445,193.824 469.445,193.491 465.5,192.5C 460.238,183.153 453.738,182.153 446,189.5C 441.333,197.833 441.333,206.167 446,214.5C 450.622,219.901 456.122,220.901 462.5,217.5 Z"/></g>
<g><path style="opacity:1" fill="#3b6fb0" d="M 71.5,144.5 C 70.4264,145.885 69.0931,147.051 67.5,148C 68.5361,149.776 68.5361,151.609 67.5,153.5C 66.5313,154.309 65.6979,155.309 65,156.5C 64.5005,162.825 64.3338,169.158 64.5,175.5C 64.5,197.5 64.5,219.5 64.5,241.5C 70.9379,240.905 71.6046,241.905 66.5,244.5C 65.6143,245.325 65.281,246.325 65.5,247.5C 67.288,247.785 68.9547,247.452 70.5,246.5C 73.685,243.655 77.3517,241.655 81.5,240.5C 80.6667,240.167 79.8333,239.833 79,239.5C 77.072,239.933 75.2387,240.6 73.5,241.5C 66.5987,239.896 66.2654,238.396 72.5,237C 71.9294,234.389 71.0961,231.889 70,229.5C 68.7508,231.992 67.5842,231.825 66.5,229C 68.3977,228.07 70.3977,227.57 72.5,227.5C 72.3436,231.582 72.8436,235.582 74,239.5C 76.1267,237.886 77.6267,235.886 78.5,233.5C 91.1216,218.489 104.122,203.656 117.5,189C 120.167,187 122.833,187 125.5,189C 128.767,191.726 131.434,194.892 133.5,198.5C 134.028,199.847 134.195,201.181 134,202.5C 132.989,201.663 131.822,201.33 130.5,201.5C 130.5,203.167 130.5,204.833 130.5,206.5C 129.167,206.5 127.833,206.5 126.5,206.5C 125.194,205.032 123.694,203.699 122,202.5C 106.218,218.774 91.3851,235.774 77.5,253.5C 76.5207,252.235 75.5207,250.901 74.5,249.5C 75.6888,248.571 77.0222,248.238 78.5,248.5C 78.5,247.5 78.5,246.5 78.5,245.5C 74.6401,246.353 71.9734,248.687 70.5,252.5C 65.1581,249.819 63.9915,251.486 67,257.5C 68.7412,259.396 70.2412,261.396 71.5,263.5C 66.766,261.393 63.9326,257.726 63,252.5C 61.8805,236.37 61.3805,220.204 61.5,204C 61.3884,187.467 61.8884,170.967 63,154.5C 64.3333,151.833 65.6667,149.167 67,146.5C 68.3297,145.418 69.8297,144.751 71.5,144.5 Z"/></g>
<g><path style="opacity:0.997" fill="#222527" d="M 522.5,189.5 C 525.939,189.253 529.272,189.586 532.5,190.5C 532.435,190.938 532.601,191.272 533,191.5C 540.57,186.145 547.903,186.478 555,192.5C 556.275,194.717 557.275,197.051 558,199.5C 558.5,209.494 558.666,219.494 558.5,229.5C 554.5,229.5 550.5,229.5 546.5,229.5C 546.666,220.827 546.5,212.16 546,203.5C 544.713,199.271 541.88,197.771 537.5,199C 535.513,200.319 534.346,202.152 534,204.5C 533.5,212.827 533.334,221.16 533.5,229.5C 529.833,229.5 526.167,229.5 522.5,229.5C 522.5,216.167 522.5,202.833 522.5,189.5 Z"/></g>
<g><path style="opacity:1" fill="#1b1d20" d="M 378.5,178.5 C 378.5,182.167 378.5,185.833 378.5,189.5C 380.833,189.5 383.167,189.5 385.5,189.5C 385.5,192.167 385.5,194.833 385.5,197.5C 383.167,197.5 380.833,197.5 378.5,197.5C 378.175,205.019 378.508,212.352 379.5,219.5C 380.167,219.833 380.833,220.167 381.5,220.5C 382.568,221.434 383.901,221.768 385.5,221.5C 385.5,224.167 385.5,226.833 385.5,229.5C 384.209,229.263 383.209,229.596 382.5,230.5C 375.923,231.488 371.09,229.155 368,223.5C 367.5,215.173 367.334,206.84 367.5,198.5C 365.833,198.5 364.167,198.5 362.5,198.5C 362.5,195.167 362.5,191.833 362.5,188.5C 364.167,188.5 365.833,188.5 367.5,188.5C 367.5,185.167 367.5,181.833 367.5,178.5C 371.167,178.5 374.833,178.5 378.5,178.5 Z"/></g>
<g><path style="opacity:0.998" fill="#202024" d="M 496.5,187.5 C 513.456,187.127 521.123,195.46 519.5,212.5C 510.833,212.5 502.167,212.5 493.5,212.5C 495.596,221.391 500.263,223.224 507.5,218C 511.152,217.501 514.818,217.335 518.5,217.5C 518.559,221.548 516.892,224.715 513.5,227C 503.793,232.864 494.626,232.031 486,224.5C 481.677,217.812 480.344,210.479 482,202.5C 484.016,194.652 488.849,189.652 496.5,187.5 Z M 499.5,198.5 C 503.324,198.735 505.324,200.735 505.5,204.5C 502.167,204.5 498.833,204.5 495.5,204.5C 495.657,201.682 496.991,199.682 499.5,198.5 Z"/></g>
<g><path style="opacity:1" fill="#1d2023" d="M 450.5,230.5 C 450.918,229.778 451.584,229.278 452.5,229C 450.398,227.27 450.565,225.437 453,223.5C 453.333,223.833 453.667,224.167 454,224.5C 455.54,220.426 456.873,220.093 458,223.5C 459.209,221.184 460.709,219.184 462.5,217.5C 464.984,215.455 465.984,212.788 465.5,209.5C 462.167,209.5 458.833,209.5 455.5,209.5C 455.5,206.167 455.5,202.833 455.5,199.5C 463.167,199.5 470.833,199.5 478.5,199.5C 482.2,222.12 472.866,232.453 450.5,230.5 Z"/></g>
<g><path style="opacity:1" fill="#2d6aae" d="M 133.5,198.5 C 141.188,206.11 148.688,214.11 156,222.5C 160.475,217.016 165.808,212.683 172,209.5C 173.5,210 175,210.5 176.5,211C 186.79,221.781 196.79,232.615 206.5,243.5C 206.44,244.043 206.107,244.376 205.5,244.5C 203.455,242.953 201.289,241.619 199,240.5C 196.901,241.287 194.734,241.62 192.5,241.5C 194.361,243.745 195.361,246.412 195.5,249.5C 187.459,241.136 179.626,232.47 172,223.5C 168.167,227.333 164.333,231.167 160.5,235C 157.167,237 153.833,237 150.5,235C 142.289,225.627 134.289,216.127 126.5,206.5C 127.833,206.5 129.167,206.5 130.5,206.5C 130.5,204.833 130.5,203.167 130.5,201.5C 131.822,201.33 132.989,201.663 134,202.5C 134.195,201.181 134.028,199.847 133.5,198.5 Z"/></g>
<g><path style="opacity:0.247" fill="#9c9c9d" d="M 381.5,220.5 C 383.167,220.5 384.833,220.5 386.5,220.5C 386.5,223.833 386.5,227.167 386.5,230.5C 385.167,230.5 383.833,230.5 382.5,230.5C 383.209,229.596 384.209,229.263 385.5,229.5C 385.5,226.833 385.5,224.167 385.5,221.5C 383.901,221.768 382.568,221.434 381.5,220.5 Z"/></g>
<g><path style="opacity:0.939" fill="#202326" d="M 403.5,187.5 C 421.842,187.798 429.675,197.131 427,215.5C 422.863,227.986 414.363,232.819 401.5,230C 392.772,226.05 388.106,219.217 387.5,209.5C 387.993,198.47 393.327,191.136 403.5,187.5 Z M 405.5,198.5 C 408.745,198.88 411.745,200.047 414.5,202C 413.346,202.914 413.513,203.747 415,204.5C 415.667,208.167 415.667,211.833 415,215.5C 413.287,220.038 410.12,221.538 405.5,220C 397.573,213.321 397.573,206.155 405.5,198.5 Z"/></g>
<g><path style="opacity:1" fill="#316db2" d="M 214.5,148.5 C 216.255,150.803 217.422,153.47 218,156.5C 218.667,188.5 218.667,220.5 218,252.5C 216.027,260.142 211.193,264.642 203.5,266C 161.5,266.667 119.5,266.667 77.5,266C 75.1887,265.764 73.1887,264.931 71.5,263.5C 70.2412,261.396 68.7412,259.396 67,257.5C 63.9915,251.486 65.1581,249.819 70.5,252.5C 71.9734,248.687 74.6401,246.353 78.5,245.5C 78.5,246.5 78.5,247.5 78.5,248.5C 77.0222,248.238 75.6888,248.571 74.5,249.5C 75.5207,250.901 76.5207,252.235 77.5,253.5C 78.4916,253.328 79.1583,253.662 79.5,254.5C 78.9569,254.56 78.6236,254.893 78.5,255.5C 119.161,256.5 159.828,256.833 200.5,256.5C 201.513,252.187 199.846,249.854 195.5,249.5C 195.361,246.412 194.361,243.745 192.5,241.5C 194.734,241.62 196.901,241.287 199,240.5C 201.289,241.619 203.455,242.953 205.5,244.5C 206.107,244.376 206.44,244.043 206.5,243.5C 206.5,214.833 206.5,186.167 206.5,157.5C 207.167,158.167 207.833,158.833 208.5,159.5C 209.382,190.795 209.715,222.128 209.5,253.5C 208.022,253.238 206.689,253.571 205.5,254.5C 206.646,255.719 207.646,257.052 208.5,258.5C 209.891,259.645 211.224,259.645 212.5,258.5C 213.427,255.287 214.427,252.12 215.5,249C 214.845,247.513 213.845,246.347 212.5,245.5C 211.534,243.604 211.201,241.604 211.5,239.5C 212.791,239.737 213.791,239.404 214.5,238.5C 215.772,208.657 215.772,178.657 214.5,148.5 Z"/></g>
<g><path style="opacity:1" fill="#205f99" d="M 195.5,249.5 C 199.846,249.854 201.513,252.187 200.5,256.5C 159.828,256.833 119.161,256.5 78.5,255.5C 78.6236,254.893 78.9569,254.56 79.5,254.5C 119.501,254.667 159.501,254.5 199.5,254C 197.959,252.629 196.625,251.129 195.5,249.5 Z"/></g>
</svg>
