<?xml version="1.0" encoding="UTF-8"?>
<svg version="1.1" xmlns="http://www.w3.org/2000/svg" width="1536" height="1024">
<path d="M0 0 C506.88 0 1013.76 0 1536 0 C1536 337.92 1536 675.84 1536 1024 C1029.12 1024 522.24 1024 0 1024 C0 686.08 0 348.16 0 0 Z " fill="#FEFEFE" transform="translate(0,0)"/>
<path d="M0 0 C1.89835626 -0.00913666 1.89835626 -0.00913666 3.83506316 -0.01845789 C7.31354762 -0.03472156 10.79180345 -0.03256756 14.27031243 -0.02708292 C18.03527743 -0.02439581 21.80018375 -0.0389758 25.56512451 -0.05117798 C32.92794134 -0.07216329 40.29067931 -0.07677682 47.65352253 -0.07499009 C53.64234306 -0.07367903 59.63113913 -0.0775041 65.61995506 -0.08491516 C67.34940566 -0.08701451 69.07885627 -0.08911211 70.80830687 -0.09120798 C71.6692808 -0.09225151 72.53025473 -0.09329504 73.41731878 -0.09437019 C89.67607553 -0.11324457 105.93478709 -0.11223091 122.19355025 -0.10540086 C137.04280265 -0.0998269 151.89188244 -0.12064956 166.74109451 -0.15376133 C182.01593929 -0.18755586 197.29070152 -0.20265953 212.56558436 -0.1980443 C221.13018014 -0.19580551 229.69461638 -0.20095617 238.25918007 -0.22593689 C245.5506512 -0.2470246 252.84187531 -0.25046833 260.13335685 -0.2316373 C263.84777771 -0.22252535 267.56173893 -0.22119514 271.27612305 -0.24199295 C307.714126 -0.43242987 307.714126 -0.43242987 320.88908386 12.39440918 C321.52330261 13.00155762 322.15752136 13.60870605 322.81095886 14.23425293 C332.60593136 24.46874343 335.20180428 37.5413911 335.16323853 51.26567078 C335.1684752 52.20693213 335.17371188 53.14819349 335.17910725 54.11797792 C335.19400326 57.24426406 335.1948101 60.37038503 335.19548035 63.4967041 C335.20310882 65.74967725 335.21153749 68.00264781 335.22070312 70.25561523 C335.24258681 76.35708039 335.25143876 82.45849545 335.25652957 88.55999541 C335.26018033 92.37771871 335.26642412 96.19542903 335.27353096 100.01314735 C335.29297288 110.60693602 335.30949502 121.2007139 335.31240749 131.79452038 C335.31259506 132.47091394 335.31278263 133.1473075 335.31297589 133.84419783 C335.31334211 135.21508364 335.31370581 136.58596945 335.314067 137.95685526 C335.31424981 138.63725635 335.31443262 139.31765745 335.31462097 140.01867676 C335.3148918 141.04054027 335.3148918 141.04054027 335.31516809 142.08304749 C335.31870746 153.11395992 335.34572203 164.14467688 335.38311886 175.17552157 C335.42130618 186.53142231 335.44012571 197.88719472 335.44086701 209.24317247 C335.44165783 215.60683635 335.4503076 221.9702477 335.47886467 228.33385277 C335.50514368 234.32337615 335.50719543 240.31243934 335.49120903 246.30199432 C335.48940239 248.49040294 335.49601359 250.67883864 335.51202774 252.86718941 C335.62336434 269.07999792 334.86522389 284.10787243 322.88908386 296.39440918 C322.34381042 296.95515137 321.79853699 297.51589355 321.23674011 298.09362793 C310.58940625 308.03949038 298.10278384 309.7002076 284.1187439 309.65510559 C282.85361963 309.65893114 281.58849537 309.66275669 280.285034 309.66669816 C276.79401606 309.6769389 273.30310127 309.67480641 269.81207502 309.67051756 C266.03895115 309.66804316 262.26585166 309.67707339 258.49273682 309.68455505 C251.10846571 309.69728457 243.724231 309.6990979 236.33995076 309.69675479 C230.335306 309.6949694 224.33067227 309.69672601 218.32602882 309.70097923 C217.47035092 309.70157442 216.61467302 309.70216961 215.73306549 309.70278284 C213.99455807 309.70399463 212.25605065 309.70520877 210.51754323 309.70642521 C194.22456076 309.71729416 177.93159899 309.7151414 161.63861535 309.70904037 C146.74839122 309.70387262 131.85823254 309.71512404 116.96802136 309.73413859 C101.66278434 309.75353261 86.35757826 309.76177019 71.05232888 309.75801533 C62.46602843 309.75610556 53.87978367 309.75856899 45.29349327 309.77272987 C37.98324807 309.78466464 30.67309283 309.78602517 23.36284634 309.77393971 C19.6367734 309.7680655 15.91086484 309.7669109 12.18480301 309.77894211 C8.13653104 309.79186122 4.0886475 309.78130182 0.04037476 309.76863098 C-1.70727644 309.77969241 -1.70727644 309.77969241 -3.49023372 309.7909773 C-17.41197645 309.69962044 -28.83452969 306.27374693 -39.29841614 296.89440918 C-49.29479013 286.31001319 -52.43448187 272.75370685 -52.37161255 258.61685181 C-52.3754381 257.68572441 -52.37926364 256.75459701 -52.38320512 255.79525363 C-52.39344918 252.7034093 -52.38955941 249.61175366 -52.38557434 246.51989746 C-52.38992557 244.29161407 -52.39511008 242.06333218 -52.40106201 239.83505249 C-52.41441884 233.80195654 -52.41503438 227.76892337 -52.41249871 221.73581553 C-52.41142678 216.69122341 -52.41631804 211.64664389 -52.42110413 206.60205448 C-52.43282075 194.0171957 -52.43198079 181.4323752 -52.42554732 168.847517 C-52.42037962 157.9407272 -52.43163303 147.03402675 -52.45064554 136.12725462 C-52.47005911 124.90359019 -52.47798292 113.67996679 -52.47452229 102.45628154 C-52.47271269 96.16488516 -52.47531348 89.87357063 -52.48923683 83.58218765 C-52.50184463 77.66416365 -52.49984304 71.74631804 -52.48682594 65.82829666 C-52.48446708 63.66282592 -52.48716996 61.4973425 -52.49544907 59.33188629 C-52.55633929 42.16067395 -51.77745034 26.30112842 -39.36091614 13.08190918 C-27.88429035 2.47472474 -15.26337764 -0.07004442 0 0 Z " fill="#0C62AE" transform="translate(212.1109161376953,357.6055908203125)"/>
<path d="M0 0 C1.07679209 -0.00569124 2.15358418 -0.01138248 3.26300633 -0.01724619 C4.45043175 -0.01842606 5.63785717 -0.01960594 6.86126518 -0.02082157 C8.74831147 -0.0284533 8.74831147 -0.0284533 10.67347991 -0.03623921 C14.17240923 -0.05015342 17.67132813 -0.05773119 21.17027807 -0.0642122 C24.1697442 -0.07058146 27.16919321 -0.08065181 30.16864868 -0.09077286 C40.05151325 -0.12410385 49.93438824 -0.14561971 59.8172906 -0.16397271 C62.39065903 -0.16876764 64.96402702 -0.17375097 67.537395 -0.17877793 C83.5169565 -0.20974928 99.49652163 -0.23643528 115.47610474 -0.25319672 C119.17780501 -0.25714623 122.87950522 -0.26114922 126.58120537 -0.2652216 C127.50124803 -0.26622996 128.4212907 -0.26723832 129.36921345 -0.26827724 C144.27160178 -0.28528223 159.173824 -0.32638924 174.07613124 -0.37724458 C189.37550707 -0.42902551 204.67479749 -0.45813961 219.97426021 -0.4653936 C228.56456437 -0.47005529 237.15459653 -0.4848004 245.74481392 -0.5251379 C253.06119819 -0.55945204 260.37726137 -0.57337172 267.69372149 -0.56071376 C271.42565881 -0.55488997 275.1569172 -0.55872961 278.88875198 -0.5888834 C282.93873019 -0.62134018 286.98722552 -0.60708559 291.03729057 -0.58844852 C292.79835221 -0.61364092 292.79835221 -0.61364092 294.59499085 -0.63934225 C302.17542594 -0.55216762 307.26797309 0.81906148 312.83022881 6.1398077 C317.11889065 11.05272642 317.39724382 16.1845569 317.31124687 22.40956783 C317.31466457 23.32209743 317.31808227 24.23462703 317.32160354 25.17480904 C317.32817291 28.22132656 317.30622168 31.26695584 317.28433037 34.31339169 C317.28320169 36.50158829 317.28383615 38.68978641 317.28610039 40.87798214 C317.28724765 46.81139565 317.26373593 52.74448547 317.23580456 58.67782378 C317.21079322 64.8811232 317.2084491 71.08443011 317.20370293 77.28777218 C317.19197895 88.36404287 317.16309577 99.4401797 317.12513205 110.51638932 C317.09085801 120.56948431 317.06588723 130.62255547 317.04995537 140.67569637 C317.04890447 141.33697033 317.04785358 141.99824428 317.04677084 142.67955684 C317.04155052 145.99712601 317.03650475 149.31469543 317.03152323 152.63226497 C316.98971718 180.13486181 316.91936348 207.63732641 316.83022881 235.1398077 C316.06323662 234.37023739 315.29624443 233.60066708 314.50601006 232.80777645 C312.69594234 231.0029936 310.8657567 229.21820102 309.01772881 227.4523077 C306.83022881 225.1398077 306.83022881 225.1398077 306.83022881 223.1398077 C306.17022881 223.1398077 305.51022881 223.1398077 304.83022881 223.1398077 C303.42007256 221.7413702 303.42007256 221.7413702 301.76772881 219.7648077 C299.03943411 216.55637833 296.27878435 213.39000403 293.45522881 210.2648077 C292.31440849 208.99830379 292.31440849 208.99830379 291.15054131 207.70621395 C289.62857794 206.02283022 288.10266254 204.34300936 286.57241631 202.66715145 C282.67093082 198.37823623 278.90157939 194.03374711 275.26772881 189.5148077 C271.9595697 185.42419705 268.48941544 181.68732384 264.72085381 178.0226202 C262.2609362 175.57286754 260.0112226 172.97363458 257.74819756 170.3429327 C254.6271387 166.75784677 251.40020736 163.26929107 248.19351006 159.76090145 C246.23362208 157.58720751 244.33082342 155.3857729 242.45522881 153.1398077 C238.91894141 149.0983364 236.43456136 146.82503018 231.01772881 146.2023077 C224.70011734 145.78728213 221.29583026 148.01961384 216.67446709 151.99356747 C210.3095527 157.69841186 204.21928153 163.63034188 198.20522881 169.7023077 C196.84204521 171.07225887 196.84204521 171.07225887 195.45132256 172.46988583 C193.24194925 174.69088741 191.0349685 176.91420803 188.83022881 179.1398077 C184.59965123 174.96596201 180.51839262 170.66379679 176.45522881 166.3273077 C175.82101006 165.65377254 175.18679131 164.98023739 174.53335381 164.28629208 C170.73226068 160.23308563 167.02393045 156.11434152 163.38003349 151.91934872 C161.49705403 149.75724455 159.57342422 147.6343336 157.64272881 145.5148077 C154.0648816 141.55620986 150.59249356 137.52173985 147.14272881 133.4523077 C142.216521 127.64857935 137.07767349 122.08033685 131.8446331 116.55313778 C128.37329337 112.86420466 125.10699622 109.10528444 121.95522881 105.1398077 C114.91340159 96.14956989 114.91340159 96.14956989 104.77944756 91.90152645 C103.65989677 91.86478817 103.65989677 91.86478817 102.51772881 91.8273077 C101.77909599 91.78992489 101.04046318 91.75254208 100.27944756 91.71402645 C93.64214479 92.86787972 89.20328836 98.63665656 84.89272881 103.3898077 C84.27301201 104.06366512 83.65329521 104.73752254 83.01479912 105.43179989 C79.4628908 109.30575788 75.9517861 113.21259406 72.52554131 117.19840145 C70.3786783 119.65690586 68.16485749 122.0500967 65.95522881 124.4523077 C62.70394187 128.01114881 59.58983423 131.62500389 56.58022881 135.3898077 C52.29728405 140.70551928 47.67291842 145.63457118 42.98574638 150.58975887 C38.82880718 155.0071734 34.96362705 159.57847252 31.17788506 164.3194952 C27.2552962 169.03182324 23.02403121 173.4549046 18.83022881 177.92496395 C16.02505627 180.91755103 13.31408835 183.97941331 10.63491631 187.0851202 C8.24240997 189.80905599 5.78611722 192.47319114 3.33022881 195.1398077 C-0.909291 199.74555564 -5.06583292 204.41320294 -9.16977119 209.1398077 C-10.62457531 210.80955585 -12.08296081 212.47618987 -13.54477119 214.1398077 C-14.21250557 214.9029327 -14.88023994 215.6660577 -15.56820869 216.4523077 C-16.09672432 217.0091827 -16.62523994 217.5660577 -17.16977119 218.1398077 C-17.49977119 218.1398077 -17.82977119 218.1398077 -18.16977119 218.1398077 C-18.23982772 191.51477104 -18.29274294 164.88974818 -18.32520771 138.26463795 C-18.34068179 125.90235852 -18.3617817 113.54013633 -18.39608955 101.17789364 C-18.42597527 90.4039602 -18.44534226 79.63006822 -18.45203668 68.85609448 C-18.45595032 63.15046154 -18.4651593 57.44494719 -18.48696136 51.73935223 C-18.50731335 46.36977384 -18.51360755 41.00036299 -18.50909424 35.6307497 C-18.50992001 33.65949055 -18.51589326 31.68822583 -18.52738762 29.71700001 C-18.54231149 27.02576983 -18.53872514 24.33517237 -18.53053474 21.64392757 C-18.53927327 20.86376022 -18.54801179 20.08359287 -18.55701512 19.27978408 C-18.51038922 13.61235456 -17.32659577 9.47800162 -13.45102119 5.27652645 C-12.86320869 4.79828426 -12.27539619 4.32004208 -11.66977119 3.8273077 C-11.08195869 3.33617489 -10.49414619 2.84504208 -9.88852119 2.33902645 C-6.66375694 0.08902048 -3.80341439 0.01171513 0 0 Z " fill="#FDFDFE" transform="translate(204.169771194458,383.86019229888916)"/>
<path d="M0 0 C8.70969677 8.61292236 16.9722343 17.59029287 24.625 27.15625 C27.4646455 30.55635185 30.46389371 33.775851 33.5 37 C38.12294958 41.90960298 42.46601179 46.94478543 46.68359375 52.2109375 C50.35461455 56.63101988 54.29269147 60.79595046 58.2109375 64.99609375 C62.28199223 69.3626063 66.18531229 73.87196015 70.05859375 78.4140625 C70.76113281 79.22617187 71.46367187 80.03828125 72.1875 80.875 C72.82042969 81.61492187 73.45335937 82.35484375 74.10546875 83.1171875 C77.14918953 86.14208114 79.91794938 87.31335298 84.1875 87.5 C94.79346443 87.04429268 102.34045107 77.00615837 109.25 69.875 C110.70488475 68.38478371 112.16202593 66.89687313 113.62200928 65.41165161 C114.93767042 64.07158796 116.24687675 62.72519584 117.55566406 61.37841797 C119.92550922 59.07248194 122.38332969 57.01825731 125 55 C133.25668607 58.58098969 138.93744727 67.06386206 144.41015625 73.90234375 C148.05080828 78.34490152 152.0387253 82.47382551 155.97607422 86.65161133 C159.52024325 90.41240599 163.00122315 94.20615298 166.37109375 98.125 C168.33665089 100.38751181 170.35673309 102.59690683 172.375 104.8125 C175.48528851 108.25378205 178.46478312 111.76321298 181.375 115.375 C185.2050329 120.1253235 189.24862398 124.61598315 193.45849609 129.02880859 C195.65388422 131.36353617 196.97158513 132.9147554 198 136 C159.408384 136.06866744 120.8167772 136.12152946 82.22511247 136.15319599 C77.66895509 136.15694811 73.11279783 136.16083107 68.55664062 136.16479492 C67.19606801 136.16597532 67.19606801 136.16597532 65.80800909 136.16717956 C51.12144679 136.18023328 36.43491973 136.20388694 21.74837834 136.23145839 C6.67849653 136.25951353 -8.39136682 136.27617649 -23.46127367 136.28226548 C-32.76011995 136.2863817 -42.05886666 136.29938222 -51.35768229 136.3237494 C-57.73433443 136.33960792 -64.11093509 136.34440009 -70.48760551 136.34050413 C-74.16654898 136.33858277 -77.84531843 136.34152703 -81.52423096 136.35761642 C-85.51525037 136.37494309 -89.50589973 136.36895924 -93.49694824 136.36076355 C-94.65649379 136.36950207 -95.81603934 136.3782406 -97.01072264 136.38724393 C-103.34909174 136.35202141 -108.30099384 135.89192378 -114 133 C-114.33 132.01 -114.66 131.02 -115 130 C-113.55078125 127.7578125 -113.55078125 127.7578125 -111.3125 125.125 C-110.06919922 123.65933594 -110.06919922 123.65933594 -108.80078125 122.1640625 C-105.4265656 118.31570413 -101.93995893 114.57222885 -98.44238281 110.83618164 C-95.34346484 107.51078916 -92.40462847 104.11385686 -89.5625 100.5625 C-84.97687705 94.84926485 -80.00254458 89.54798063 -74.99609375 84.20703125 C-70.63009707 79.54808681 -66.46824167 74.72929197 -62.3359375 69.86328125 C-56.73357448 63.27801517 -51.04646029 56.80597233 -45.15405273 50.47827148 C-41.95656495 47.04420657 -38.83241013 43.56234134 -35.765625 40.01171875 C-33.5908943 37.53387293 -31.35661598 35.11421125 -29.125 32.6875 C-25.8927002 29.14990052 -22.79943674 25.55882744 -19.8125 21.8125 C-13.64487725 14.15306959 -6.78234537 7.11240609 0 0 Z " fill="#FDFDFE" transform="translate(307,505)"/>
<path d="M0 0 C69.16048593 0 69.16048593 0 82.40625 12.21484375 C92.75308478 23.8043131 93.85597248 36.87532789 93.1640625 51.71679688 C92.37749717 62.66316436 87.62807256 70.80341198 79.75 78.25 C67.88129772 88.2635942 55.91121725 89.30066384 41 89.125 C36.05 89.08375 31.1 89.0425 26 89 C26 104.18 26 119.36 26 135 C17.42 135 8.84 135 0 135 C0 90.45 0 45.9 0 0 Z " fill="#191C1F" transform="translate(607,441)"/>
<path d="M0 0 C9.27359025 7.66348443 15.84173904 19.2892251 17.21484375 31.30859375 C17.29734375 32.58734375 17.37984375 33.86609375 17.46484375 35.18359375 C14.11392604 35.93722427 11.03374563 36.30339312 7.6015625 36.28125 C6.2722168 36.27641602 6.2722168 36.27641602 4.91601562 36.27148438 C4.00400391 36.26310547 3.09199219 36.25472656 2.15234375 36.24609375 C1.22099609 36.24158203 0.28964844 36.23707031 -0.66992188 36.23242188 C-2.95839998 36.22068609 -5.24674433 36.20426738 -7.53515625 36.18359375 C-7.91027344 35.44753906 -8.28539062 34.71148437 -8.671875 33.953125 C-13.40275559 24.93227712 -18.7630132 18.11135249 -28.546875 14.42578125 C-37.40438593 11.95472712 -44.44502346 12.94653566 -52.53515625 17.18359375 C-62.76340034 23.63929022 -66.75250249 34.93881855 -69.53515625 46.18359375 C-73.0006623 63.53407436 -69.63579428 80.16375639 -60.3515625 95.0859375 C-56.12672683 100.83112926 -48.38223375 104.6772367 -41.53515625 106.18359375 C-32.76859853 107.08807986 -25.555502 105.68656384 -18.2734375 100.60546875 C-9.84931495 93.69177113 -8.57172602 88.38472746 -6.53515625 77.18359375 C-15.77515625 77.18359375 -25.01515625 77.18359375 -34.53515625 77.18359375 C-34.53515625 69.92359375 -34.53515625 62.66359375 -34.53515625 55.18359375 C-16.71515625 55.18359375 1.10484375 55.18359375 19.46484375 55.18359375 C19.56796875 60.83484375 19.67109375 66.48609375 19.77734375 72.30859375 C19.82286377 74.06059082 19.86838379 75.81258789 19.9152832 77.61767578 C20.13387623 92.1953009 16.86128672 105.05128275 6.7265625 116.07421875 C-4.68773443 126.94497773 -20.00001115 130.73952353 -35.42822266 130.60327148 C-51.57699283 129.99890716 -67.67056926 123.93019348 -79.3515625 112.6328125 C-91.88410384 98.57574019 -96.12110319 80.97426161 -95.97265625 62.55859375 C-95.96508301 61.24060791 -95.95750977 59.92262207 -95.94970703 58.56469727 C-95.60243812 37.90980142 -90.48644384 17.79008832 -75.1875 2.8984375 C-54.27755197 -14.8302823 -22.26028065 -15.94919954 0 0 Z " fill="#181B1D" transform="translate(1180.53515625,448.81640625)"/>
<path d="M0 0 C11.58067468 8.99983861 17.19994807 21.21901945 19.56640625 35.4765625 C21.30951715 49.6413015 19.02361353 63.95644217 11 76 C1.16131139 87.77591877 -9.28853523 93.8243732 -24.703125 95.25 C-37.86156403 95.58102991 -49.32749777 91.27378192 -59.375 82.75 C-68.55891278 73.93403244 -74.20265503 61.53237082 -75.16796875 48.78125 C-75.31444745 31.67253793 -71.2002318 16.49773856 -59.125 4.0703125 C-42.7537344 -11.31075558 -18.59373705 -11.93180987 0 0 Z " fill="#181B1D" transform="translate(887,483)"/>
<path d="M0 0 C1.39591965 1.03486211 2.77253556 2.09645867 4.125 3.1875 C4.72699219 3.64253906 5.32898437 4.09757812 5.94921875 4.56640625 C14.96493793 12.32600275 20.57678009 26.67548862 22.125 38.1875 C23.25656537 53.75116135 19.57312208 68.21953485 10.19921875 80.8671875 C3.93530687 87.87427536 -3.97820767 92.38049066 -12.875 95.1875 C-13.47441406 95.37828125 -14.07382813 95.5690625 -14.69140625 95.765625 C-27.47907036 98.23622916 -39.40103366 95.55598338 -50.5625 89.125 C-60.42937722 82.43317851 -66.15604765 73.35929261 -69.875 62.1875 C-70.24109375 61.11371094 -70.6071875 60.03992188 -70.984375 58.93359375 C-72.06732174 54.37856778 -72.2180767 50.16449724 -72.1875 45.5 C-72.18258545 44.61586426 -72.1776709 43.73172852 -72.17260742 42.82080078 C-71.91126122 28.17201135 -67.45849564 16.14666123 -57.33203125 5.44921875 C-41.85691655 -8.79575965 -17.8511744 -11.28557297 0 0 Z " fill="#171A1D" transform="translate(1049.875,481.8125)"/>
<path d="M0 0 C8.25 0 16.5 0 25 0 C25.33 14.19 25.66 28.38 26 43 C28.31 41.02 30.62 39.04 33 37 C42.71845428 31.88070155 51.56200444 32.0663507 61.9375 34.8984375 C72.73622693 38.78267346 79.48530087 45.42283446 84.3125 55.625 C86.78955376 61.24801654 87.12484318 66.83436919 87.11352539 72.92333984 C87.11367142 73.5874588 87.11381744 74.25157776 87.1139679 74.93582153 C87.11327634 77.11089449 87.10551973 79.28587968 87.09765625 81.4609375 C87.09578938 82.97693841 87.09436675 84.49293992 87.09336853 86.00894165 C87.08956456 89.98404631 87.07975253 93.95911398 87.06866455 97.9342041 C87.0584047 101.99649556 87.05386114 106.05879304 87.04882812 110.12109375 C87.03812822 118.08074797 87.02054874 126.04036511 87 134 C78.42 134 69.84 134 61 134 C60.9906543 132.07285156 60.98130859 130.14570312 60.97167969 128.16015625 C60.9360588 121.76978932 60.88220175 115.37977611 60.81609726 108.98965454 C60.77670472 105.11792384 60.74447637 101.24641776 60.72900391 97.37451172 C60.71378248 93.63299259 60.67924163 89.89209135 60.63169098 86.15084839 C60.61693328 84.72847892 60.60896222 83.30602121 60.60811615 81.88357544 C60.59856854 73.87552294 60.44712235 67.79972949 56 61 C51.51528969 56.56239799 46.17684737 55 40 55 C35.67070549 55.90061966 32.76559188 57.23440812 29.625 60.375 C26.64050477 65.19610768 25.74625 68.95187469 25.68115234 74.6262207 C25.67110672 75.27068649 25.6610611 75.91515228 25.65071106 76.57914734 C25.61999064 78.69468348 25.60287552 80.81009372 25.5859375 82.92578125 C25.56721683 84.39838231 25.54764274 85.87097275 25.5272522 87.34355164 C25.47601977 91.20844242 25.43634672 95.07336795 25.39910889 98.93841553 C25.3590133 102.88676485 25.30794636 106.83497076 25.2578125 110.78320312 C25.16115847 118.52204428 25.07773502 126.26094144 25 134 C16.75 134 8.5 134 0 134 C0 89.78 0 45.56 0 0 Z " fill="#181A1D" transform="translate(714,442)"/>
<path d="M0 0 C9.82664993 8.53366967 14.83778641 21.34478532 16 34 C16 39.28 16 44.56 16 50 C-6.11 50 -28.22 50 -51 50 C-47.29710183 63.98801366 -47.29710183 63.98801366 -37.546875 73.0859375 C-31.33228672 75.31632654 -24.03622838 75.12622005 -17.8828125 72.84375 C-14.78233441 71.13352791 -14.78233441 71.13352791 -12.89453125 67.8359375 C-11.1122025 65.52939442 -10.28029757 65.05134035 -7.36083984 64.51660156 C-4.11724802 64.40928247 -0.92937185 64.47721157 2.3125 64.625 C3.99569336 64.66560547 3.99569336 64.66560547 5.71289062 64.70703125 C8.47722459 64.77760999 11.23762415 64.87615512 14 65 C14.41448604 71.0186827 12.80446457 73.29018717 9.046875 77.76171875 C0.17882432 87.45903371 -10.32107984 93.06995408 -23.51171875 94.21875 C-35.76210021 94.64796045 -46.72991507 91.61613416 -57 85 C-57.9075 84.4225 -58.815 83.845 -59.75 83.25 C-69.66422569 73.33577431 -75.15105499 61.12676658 -75.38061523 47.18505859 C-75.3465783 30.15179141 -72.19413975 15.66763158 -60.3125 2.625 C-44.02515044 -12.52602284 -17.53853268 -13.35250659 0 0 Z " fill="#181A1D" transform="translate(1287,484)"/>
<path d="M0 0 C8.24162394 6.35648879 12.22235329 16.45799067 13.69140625 26.53125 C13.95705081 31.71124908 13.92520062 36.88200357 13.88671875 42.06640625 C13.88298162 43.55569772 13.88013796 45.04499168 13.87814331 46.5342865 C13.87056192 50.42555713 13.85096169 54.31667489 13.82873535 58.20788574 C13.80815752 62.19000176 13.79911624 66.17214284 13.7890625 70.15429688 C13.76770972 77.94669185 13.73257346 85.7389299 13.69140625 93.53125 C5.11140625 93.53125 -3.46859375 93.53125 -12.30859375 93.53125 C-12.32317627 91.53304199 -12.33775879 89.53483398 -12.3527832 87.47607422 C-12.40319764 80.86222078 -12.46980466 74.24860108 -12.54430866 67.63497734 C-12.5889709 63.62646381 -12.62823593 59.61805095 -12.6550293 55.609375 C-12.681104 51.73827626 -12.72153525 47.86756573 -12.77178001 43.99670792 C-12.78842069 42.52244025 -12.79995239 41.04810548 -12.80620766 39.57375717 C-12.81587975 37.50302515 -12.84397315 35.43328 -12.8762207 33.36279297 C-12.89287529 31.59740677 -12.89287529 31.59740677 -12.90986633 29.7963562 C-13.58488699 24.268735 -15.96686017 20.00463686 -20.30859375 16.53125 C-26.06391097 13.91519672 -31.56736899 13.56375891 -37.49609375 15.65625 C-42.31283687 18.86741208 -45.42467597 22.54902952 -46.91571045 28.1946106 C-47.84686715 33.7325844 -47.67526148 39.39417853 -47.72265625 44.99609375 C-47.74138994 46.39857596 -47.76096496 47.80104717 -47.78134155 49.20350647 C-47.83243665 52.87437416 -47.87218252 56.5452783 -47.90948486 60.21630859 C-47.9496673 63.97046762 -48.0006943 67.72447799 -48.05078125 71.47851562 C-48.14727233 78.8293323 -48.23075807 86.18020778 -48.30859375 93.53125 C-56.55859375 93.53125 -64.80859375 93.53125 -73.30859375 93.53125 C-73.30859375 60.86125 -73.30859375 28.19125 -73.30859375 -5.46875 C-66.04859375 -5.46875 -58.78859375 -5.46875 -51.30859375 -5.46875 C-51.30859375 -1.17875 -51.30859375 3.11125 -51.30859375 7.53125 C-50.64859375 7.53125 -49.98859375 7.53125 -49.30859375 7.53125 C-49.03917969 6.933125 -48.76976562 6.335 -48.4921875 5.71875 C-45.14812179 -0.46170147 -38.93986509 -3.66321323 -32.4609375 -5.76953125 C-20.51278764 -8.41974045 -10.24030494 -6.5149825 0 0 Z " fill="#171A1C" transform="translate(1387.30859375,482.46875)"/>
<path d="M0 0 C8.25 0 16.5 0 25 0 C25 8.91 25 17.82 25 27 C30.94 27 36.88 27 43 27 C43 33.6 43 40.2 43 47 C37.06 47 31.12 47 25 47 C25.06290391 54.24993637 25.13830034 61.49948282 25.23571491 68.74904346 C25.28044841 72.11530477 25.31969739 75.48144423 25.34643555 78.84790039 C25.3798898 82.71791721 25.43220252 86.58728447 25.48828125 90.45703125 C25.49467117 91.66647903 25.5010611 92.87592682 25.50764465 94.12202454 C25.53733589 95.80342781 25.53733589 95.80342781 25.56762695 97.51879883 C25.58428154 99.00105705 25.58428154 99.00105705 25.60127258 100.51325989 C25.81213375 103.02905397 25.81213375 103.02905397 27.31730652 104.81059265 C31.36770813 107.67360811 38.34564069 106.78649728 43 107 C43 113.27 43 119.54 43 126 C33.71757065 128.32060734 20.28783149 128.61960386 11.75390625 123.70703125 C5.98584775 119.59001335 2.06979884 115.60200793 0.40142822 108.53417969 C-0.44881246 103.16668795 -0.24009774 97.73251905 -0.1953125 92.3125 C-0.1924826 91.01425293 -0.18965271 89.71600586 -0.18673706 88.37841797 C-0.17915637 84.95237308 -0.15955685 81.52650188 -0.1373291 78.1005249 C-0.11674969 74.59438424 -0.10770966 71.0882151 -0.09765625 67.58203125 C-0.07630474 60.72127629 -0.04116905 53.8606644 0 47 C-4.62 47 -9.24 47 -14 47 C-14 40.4 -14 33.8 -14 27 C-9.38 27 -4.76 27 0 27 C0 18.09 0 9.18 0 0 Z " fill="#171A1C" transform="translate(926,450)"/>
<path d="M0 0 C9.01602907 -0.49556188 16.49218987 2.53425276 23.390625 8.25390625 C30.7201783 15.45507566 33.45668279 22.61713891 33.640625 32.75390625 C33.55763817 39.87824766 32.12193791 45.2534144 28.015625 51.19140625 C27.45875 52.09890625 26.901875 53.00640625 26.328125 53.94140625 C20.0140558 60.08482493 11.74188774 64.45766838 2.890625 64.56640625 C-7.15510232 64.36231698 -14.75212197 61.45399248 -22.0390625 54.48046875 C-28.77080825 46.55917757 -30.48162438 38.07131239 -30.38671875 27.9375 C-29.54053088 20.05891589 -25.8795408 13.56244991 -20.109375 8.19140625 C-13.79841336 3.25344008 -7.96582197 0.76835684 0 0 Z " fill="#0C63AE" transform="translate(436.984375,428.80859375)"/>
<path d="M0 0 C6.71542905 3.35771452 11.34683173 8.88478395 14.375 15.6875 C18.0393463 26.88153681 17.83238325 41.06316617 12.55859375 51.640625 C9.28186458 56.6008867 4.8877683 60.5981504 -1 62 C-8.60301969 62.79198122 -13.87589471 61.20525079 -20.1875 56.75 C-27.94767727 49.16227112 -29.17874567 40.53789613 -29.3125 30.0625 C-29.2535221 19.87229876 -27.36948758 11.40368474 -20 4 C-13.4178557 -0.82131589 -7.82792258 -1.5557843 0 0 Z " fill="#FCFCFC" transform="translate(1031,496)"/>
<path d="M0 0 C6.0055504 5.86588644 9.10199845 13.26535285 9.53125 21.65625 C9.54170861 23.60416644 9.53112164 25.55230411 9.5 27.5 C9.51546875 28.46808594 9.5309375 29.43617188 9.546875 30.43359375 C9.50345318 38.52090816 7.44619935 44.98124392 3.25 51.875 C-1.06442668 55.94973631 -5.57917055 58.21286988 -11.5625 58.4375 C-18.28021522 58.0802973 -23.49684108 55.24300802 -28.42578125 50.8125 C-34.61822316 43.68274058 -35.21888228 34.79355994 -35.3125 25.8125 C-35.34150391 24.90435547 -35.37050781 23.99621094 -35.40039062 23.06054688 C-35.48824409 13.6196787 -32.35853573 6.53750298 -25.9140625 -0.33203125 C-17.93928631 -7.28147907 -8.13808958 -5.79056374 0 0 Z " fill="#FCFCFC" transform="translate(872,500)"/>
<path d="M0 0 C5.9090625 -0.12375 5.9090625 -0.12375 11.9375 -0.25 C13.16073975 -0.28641602 14.38397949 -0.32283203 15.64428711 -0.36035156 C23.15074859 -0.43589748 29.68093868 0.33499844 35.58154297 5.34204102 C39.65704069 9.76168861 40.77242246 14.54216252 41.3125 20.375 C40.80464975 26.26606287 39.47026776 31.10965574 35.8125 35.8125 C27.88563313 41.9778409 21.80404099 42.53971146 12 42.25 C8.04 42.1675 4.08 42.085 0 42 C0 28.14 0 14.28 0 0 Z " fill="#FCFCFC" transform="translate(633,465)"/>
<path d="M0 0 C4.1984555 2.733878 7.44588378 6.1726893 9 11 C9 13.64 9 16.28 9 19 C-4.86 19 -18.72 19 -33 19 C-30.6803495 9.72139799 -28.68593963 4.38015774 -21 -1 C-13.56748731 -4.39310362 -7.07449041 -3.73746663 0 0 Z " fill="#FBFBFB" transform="translate(1269,498)"/>
<path d="M0 0 C0.33 0 0.66 0 1 0 C1 22.11 1 44.22 1 67 C-6 68 -6 68 -23 68 C-23 46.22 -23 24.44 -23 2 C-22.67 2.99 -22.34 3.98 -22 5 C-21.34 5 -20.68 5 -20 5 C-20 25.13 -20 45.26 -20 66 C-13.4 66 -6.8 66 0 66 C0 44.22 0 22.44 0 0 Z " fill="#292B2D" transform="translate(798,508)"/>
<path d="M0 0 C17.49 0 34.98 0 53 0 C53 0.99 53 1.98 53 3 C36.5 3 20 3 3 3 C3 8.61 3 14.22 3 20 C11.25 20 19.5 20 28 20 C28 20.66 28 21.32 28 22 C18.76 22 9.52 22 0 22 C0 14.74 0 7.48 0 0 Z " fill="#27282A" transform="translate(1146,504)"/>
<path d="M0 0 C-2.36063289 1.18031644 -3.73203518 1.10112157 -6.359375 1.0625 C-7.22820312 1.05476563 -8.09703125 1.04703125 -8.9921875 1.0390625 C-10.81510731 1.01324211 -12.63802406 0.98720426 -14.4609375 0.9609375 C-19.10211567 0.91986513 -23.43239908 1.03203159 -28 2 C-27 0 -27 0 -23.875 -1.125 C-16.88505605 -2.72633261 -6.24362885 -3.97321836 0 0 Z " fill="#232425" transform="translate(1156,440)"/>
<path d="M0 0 C5.28 0 10.56 0 16 0 C16 0.99 16 1.98 16 3 C10.72 3 5.44 3 0 3 C0 2.01 0 1.02 0 0 Z " fill="#242627" transform="translate(1017,575)"/>
<path d="M0 0 C0.33 0 0.66 0 1 0 C1.84023188 4.35332736 2.10770995 8.44442519 2.0625 12.875 C2.05347656 14.02742187 2.04445313 15.17984375 2.03515625 16.3671875 C2.02355469 17.23601563 2.01195312 18.10484375 2 19 C1.01 19.33 0.02 19.66 -1 20 C-1.02692484 17.70839681 -1.04636124 15.41670454 -1.0625 13.125 C-1.07410156 11.84882812 -1.08570313 10.57265625 -1.09765625 9.2578125 C-1 6 -1 6 0 4 C-0.66 4 -1.32 4 -2 4 C-1 1 -1 1 0 0 Z " fill="#292B2D" transform="translate(1070,514)"/>
</svg>
